<svg width="36" height="35" viewBox="0 0 36 35" fill="none" xmlns="http://www.w3.org/2000/svg">
<mask id="mask0_1186_206" style="mask-type:alpha" maskUnits="userSpaceOnUse" x="0" y="0" width="36" height="35">
<rect x="0.5" width="35" height="35" fill="#D9D9D9"/>
</mask>
<g mask="url(#mask0_1186_206)">
<path d="M20.0597 31.6823L18.091 29.7135L23.1952 24.6094L10.8722 12.2865L5.76807 17.3906L3.79932 15.4219L5.84098 13.3438L3.87223 11.375L6.9165 8.33073L4.94775 6.32552L6.84359 4.42969L8.8488 6.39844L11.8931 3.35417L13.8618 5.32292L15.9399 3.28125L17.9087 5.25L12.8045 10.3542L25.1274 22.6771L30.2316 17.5729L32.2004 19.5417L30.1587 21.6198L32.1274 23.5885L29.0832 26.6328L31.0519 28.638L29.1561 30.5339L27.1509 28.5651L24.1066 31.6094L22.1379 29.6406L20.0597 31.6823Z" fill="#121212"/>
</g>
</svg>
