<svg width="36" height="35" viewBox="0 0 36 35" fill="none" xmlns="http://www.w3.org/2000/svg">
<mask id="mask0_1186_220" style="mask-type:alpha" maskUnits="userSpaceOnUse" x="0" y="0" width="36" height="35">
<rect x="0.5" width="35" height="35" fill="#D9D9D9"/>
</mask>
<g mask="url(#mask0_1186_220)">
<path d="M16.4688 26.7605L11.2917 21.5834L13.4063 19.4688L16.4688 22.5313L22.5938 16.4063L24.7083 18.5209L16.4688 26.7605ZM7.79167 32.0834C6.98958 32.0834 6.30295 31.7978 5.73177 31.2266C5.16059 30.6555 4.875 29.9688 4.875 29.1668V8.75008C4.875 7.948 5.16059 7.26137 5.73177 6.69019C6.30295 6.11901 6.98958 5.83342 7.79167 5.83342H9.25V2.91675H12.1667V5.83342H23.8333V2.91675H26.75V5.83342H28.2083C29.0104 5.83342 29.697 6.11901 30.2682 6.69019C30.8394 7.26137 31.125 7.948 31.125 8.75008V29.1668C31.125 29.9688 30.8394 30.6555 30.2682 31.2266C29.697 31.7978 29.0104 32.0834 28.2083 32.0834H7.79167ZM7.79167 29.1668H28.2083V14.5834H7.79167V29.1668Z" fill="#121212"/>
</g>
</svg>
