<svg width="26" height="25" viewBox="0 0 26 25" fill="none" xmlns="http://www.w3.org/2000/svg">
<path d="M13 12.5C16.4521 12.5 19.25 9.70215 19.25 6.25C19.25 2.79785 16.4521 0 13 0C9.54785 0 6.75 2.79785 6.75 6.25C6.75 9.70215 9.54785 12.5 13 12.5ZM17.375 14.0625H16.5596C15.4756 14.5605 14.2695 14.8438 13 14.8438C11.7305 14.8438 10.5293 14.5605 9.44043 14.0625H8.625C5.00195 14.0625 2.0625 17.002 2.0625 20.625V22.6562C2.0625 23.9502 3.1123 25 4.40625 25H21.5938C22.8877 25 23.9375 23.9502 23.9375 22.6562V20.625C23.9375 17.002 20.998 14.0625 17.375 14.0625Z" fill="#121212"/>
</svg>
