<svg width="262" height="36" viewBox="0 0 262 36" fill="none" xmlns="http://www.w3.org/2000/svg">
<path d="M8.11961 22.88H6.43961V26C8.85961 26 11.2396 26 13.6196 26V23.2L12.0596 23.08V21.48H13.5996L15.3396 23.98V26C17.2196 26 19.0996 26 20.9796 26V22.88H19.1596L17.6796 20.92C19.8396 19.9 20.3996 18.48 20.3996 16.82C20.3996 14.3 18.5396 12 14.9596 12H6.43961V15.1H8.11961V22.88ZM14.9396 15.16C15.9996 15.16 16.4796 15.94 16.4796 16.84C16.4796 17.74 15.9596 18.52 14.9796 18.52H12.0596V15.16H14.9396ZM32.9371 22.66H28.9371V20.54H32.2971V17.46H28.9371V15.3H32.6771L32.7571 16.7H35.7571V12C31.6571 12 27.5771 12 23.4771 12V15.1H25.0171V22.88H23.4771V26C27.6571 26 31.8571 26 36.0171 26V21.26H33.0171L32.9371 22.66ZM49.7359 13.3C48.1359 12.04 46.4959 11.62 44.4759 11.62C41.7759 11.62 38.5759 12.94 38.5759 16.02C38.5759 19.48 41.4759 20.28 44.3159 20.54C45.8559 20.7 46.6759 21.06 46.6759 21.74C46.6759 22.54 45.7759 23 44.4559 23C43.7359 23 42.8959 22.88 42.0559 22.56L41.9959 20.94H38.5759V24.44C40.3359 25.92 42.1559 26.4 44.4359 26.38C47.5959 26.36 50.6159 24.98 50.6159 21.82C50.6159 18.52 47.6359 17.64 44.8959 17.36C43.4959 17.22 42.5359 16.96 42.5359 16.02C42.5359 15.08 43.7359 14.84 44.4759 14.84C45.1159 14.84 45.7159 14.9 46.2559 15.06L46.3159 16.68H49.7359C49.7359 15.56 49.7359 14.42 49.7359 13.3ZM54.6748 15.1C54.6748 17.7 54.6748 20.26 54.6748 22.88H53.0348V26C55.4548 26 57.8748 26 60.3148 26V22.88H58.6548C58.6548 20.26 58.6548 17.7 58.6548 15.1H60.3148V12C57.8748 12 55.4548 12 53.0348 12V15.1H54.6748ZM64.6782 15.14V22.88H63.1782V26H75.6782V20.42H72.2182L72.0582 22.64H68.6582V15.14H70.3182V12C67.8982 12 65.4582 12 63.0782 12V15.14H64.6782ZM79.6435 15.1C79.6435 17.7 79.6435 20.26 79.6435 22.88H78.0035V26C80.4235 26 82.8435 26 85.2835 26V22.88H83.6235C83.6235 20.26 83.6235 17.7 83.6235 15.1H85.2835V12C82.8435 12 80.4235 12 78.0035 12V15.1H79.6435ZM97.527 22.66H93.527V20.54H96.887V17.46H93.527V15.3H97.267L97.347 16.7H100.347V12C96.247 12 92.167 12 88.067 12V15.1H89.607V22.88H88.067V26C92.247 26 96.447 26 100.607 26V21.26H97.607L97.527 22.66ZM108.206 12H103.186V15.14H104.846V22.88H103.186V26C105.526 26 107.866 26 110.226 26V22.88H108.866V21.5L108.806 18.46L114.626 26H118.006V15.14H119.626V12C117.326 12 114.966 12 112.646 12V15.14H114.006V16.8C114.046 17.34 114.046 17.98 114.126 19.66L108.206 12ZM132.621 21.56C131.681 22.52 130.441 22.94 129.281 22.94C126.981 22.92 125.481 21.34 125.481 19C125.481 16.78 126.861 15.06 129.321 15.06C129.781 15.06 130.261 15.1 130.761 15.28L130.861 17.52H134.221V13.48C132.941 12.22 131.101 11.64 129.321 11.64C124.061 11.64 121.521 15.4 121.561 19C121.581 23.7 124.781 26.38 129.281 26.36C131.501 26.34 133.361 25.7 134.941 24.16L132.621 21.56ZM146.582 22.66H142.582V20.54H145.942V17.46H142.582V15.3H146.322L146.402 16.7H149.402V12C145.302 12 141.222 12 137.122 12V15.1H138.662V22.88H137.122V26C141.302 26 145.502 26 149.662 26V21.26H146.662L146.582 22.66Z" fill="#101010"/>
<rect x="157" width="104.354" height="36" fill="#101010"/>
<path d="M170.265 15.54L166.765 11H161.005V14.14H162.645V21.88H161.005V25C163.405 25 165.785 25 168.225 25V21.88H166.545V16.46L170.045 20.7H170.445L174.025 16.44V21.88H172.365V25C174.785 25 177.205 25 179.585 25V21.88H177.945V14.14H179.585V11H173.825L170.265 15.54ZM192.696 14.1V18.84C192.696 20.98 191.636 21.94 190.036 21.94C188.396 21.94 187.336 21 187.336 18.8V14.1H189.036V11C186.596 11 184.216 11 181.796 11V14.1H183.416V18.8C183.416 23.1 185.896 25.32 190.036 25.32C194.136 25.32 196.656 22.98 196.616 18.84V14.1H198.236V11C195.836 11 193.436 11 191.016 11V14.1H192.696ZM211.526 12.3C209.926 11.04 208.286 10.62 206.266 10.62C203.566 10.62 200.366 11.94 200.366 15.02C200.366 18.48 203.266 19.28 206.106 19.54C207.646 19.7 208.466 20.06 208.466 20.74C208.466 21.54 207.566 22 206.246 22C205.526 22 204.686 21.88 203.846 21.56L203.786 19.94H200.366V23.44C202.126 24.92 203.946 25.4 206.226 25.38C209.386 25.36 212.406 23.98 212.406 20.82C212.406 17.52 209.426 16.64 206.686 16.36C205.286 16.22 204.326 15.96 204.326 15.02C204.326 14.08 205.526 13.84 206.266 13.84C206.906 13.84 207.506 13.9 208.046 14.06L208.106 15.68H211.526C211.526 14.56 211.526 13.42 211.526 12.3ZM225.525 20.56C224.585 21.52 223.345 21.94 222.185 21.94C219.885 21.92 218.385 20.34 218.385 18C218.385 15.78 219.765 14.06 222.225 14.06C222.685 14.06 223.165 14.1 223.665 14.28L223.765 16.52H227.125V12.48C225.845 11.22 224.005 10.64 222.225 10.64C216.965 10.64 214.425 14.4 214.465 18C214.485 22.7 217.685 25.38 222.185 25.36C224.405 25.34 226.265 24.7 227.845 23.16L225.525 20.56ZM231.605 14.14V21.88H230.105V25H242.605V19.42H239.145L238.985 21.64H235.585V14.14H237.245V11C234.825 11 232.385 11 230.005 11V14.14H231.605ZM254.43 21.66H250.43V19.54H253.79V16.46H250.43V14.3H254.17L254.25 15.7H257.25V11C253.15 11 249.07 11 244.97 11V14.1H246.51V21.88H244.97V25C249.15 25 253.35 25 257.51 25V20.26H254.51L254.43 21.66Z" fill="white"/>
</svg>
