<svg width="325" height="36" viewBox="0 0 325 36" fill="none" xmlns="http://www.w3.org/2000/svg">
<path d="M3.024 22.256H1.008V26C3.912 26 6.768 26 9.624 26V22.64L7.752 22.496V20.576H9.6L11.688 23.576V26C13.944 26 16.2 26 18.456 26V22.256H16.272L14.496 19.904C17.088 18.68 17.76 16.976 17.76 14.984C17.76 11.96 15.528 9.2 11.232 9.2H1.008V12.92H3.024V22.256ZM11.208 12.992C12.48 12.992 13.056 13.928 13.056 15.008C13.056 16.088 12.432 17.024 11.256 17.024H7.752V12.992H11.208ZM32.805 21.992H28.005V19.448H32.037V15.752H28.005V13.16H32.493L32.589 14.84H36.189V9.2C31.269 9.2 26.373 9.2 21.453 9.2V12.92H23.301V22.256H21.453V26C26.469 26 31.509 26 36.501 26V20.312H32.901L32.805 21.992ZM52.9635 10.76C51.0435 9.248 49.0755 8.744 46.6515 8.744C43.4115 8.744 39.5715 10.328 39.5715 14.024C39.5715 18.176 43.0515 19.136 46.4595 19.448C48.3075 19.64 49.2915 20.072 49.2915 20.888C49.2915 21.848 48.2115 22.4 46.6275 22.4C45.7635 22.4 44.7555 22.256 43.7475 21.872L43.6755 19.928H39.5715V24.128C41.6835 25.904 43.8675 26.48 46.6035 26.456C50.3955 26.432 54.0195 24.776 54.0195 20.984C54.0195 17.024 50.4435 15.968 47.1555 15.632C45.4755 15.464 44.3235 15.152 44.3235 14.024C44.3235 12.896 45.7635 12.608 46.6515 12.608C47.4195 12.608 48.1395 12.68 48.7875 12.872L48.8595 14.816H52.9635C52.9635 13.472 52.9635 12.104 52.9635 10.76ZM58.8902 12.92C58.8902 16.04 58.8902 19.112 58.8902 22.256H56.9222V26C59.8262 26 62.7302 26 65.6582 26V22.256H63.6662C63.6662 19.112 63.6662 16.04 63.6662 12.92H65.6582V9.2C62.7302 9.2 59.8262 9.2 56.9222 9.2V12.92H58.8902ZM70.8943 12.968V22.256H69.0943V26H84.0943V19.304H79.9423L79.7503 21.968H75.6703V12.968H77.6623V9.2C74.7583 9.2 71.8303 9.2 68.9743 9.2V12.968H70.8943ZM88.8527 12.92C88.8527 16.04 88.8527 19.112 88.8527 22.256H86.8847V26C89.7887 26 92.6927 26 95.6207 26V22.256H93.6287C93.6287 19.112 93.6287 16.04 93.6287 12.92H95.6207V9.2C92.6927 9.2 89.7887 9.2 86.8847 9.2V12.92H88.8527ZM110.313 21.992H105.513V19.448H109.545V15.752H105.513V13.16H110.001L110.097 14.84H113.697V9.2C108.777 9.2 103.881 9.2 98.9608 9.2V12.92H100.809V22.256H98.9608V26C103.977 26 109.017 26 114.009 26V20.312H110.409L110.313 21.992ZM123.127 9.2H117.103V12.968H119.095V22.256H117.103V26C119.911 26 122.719 26 125.551 26V22.256H123.919V20.6L123.847 16.952L130.831 26H134.887V12.968H136.831V9.2C134.071 9.2 131.239 9.2 128.455 9.2V12.968H130.087V14.96C130.135 15.608 130.135 16.376 130.231 18.392L123.127 9.2ZM152.426 20.672C151.298 21.824 149.81 22.328 148.418 22.328C145.658 22.304 143.858 20.408 143.858 17.6C143.858 14.936 145.514 12.872 148.466 12.872C149.018 12.872 149.594 12.92 150.194 13.136L150.314 15.824H154.346V10.976C152.81 9.464 150.602 8.768 148.466 8.768C142.154 8.768 139.106 13.28 139.154 17.6C139.178 23.24 143.018 26.456 148.418 26.432C151.082 26.408 153.314 25.64 155.21 23.792L152.426 20.672ZM169.178 21.992H164.378V19.448H168.41V15.752H164.378V13.16H168.866L168.962 14.84H172.562V9.2C167.642 9.2 162.746 9.2 157.826 9.2V12.92H159.674V22.256H157.826V26C162.842 26 167.882 26 172.874 26V20.312H169.274L169.178 21.992Z" fill="white"/>
<rect x="180" width="145" height="36" fill="white"/>
<path d="M205.805 14.648L201.605 9.2H194.693V12.968H196.661V22.256H194.693V26C197.573 26 200.429 26 203.357 26V22.256H201.341V15.752L205.541 20.84H206.021L210.317 15.728V22.256H208.325V26C211.229 26 214.133 26 216.989 26V22.256H215.021V12.968H216.989V9.2H210.077L205.805 14.648ZM232.723 12.92V18.608C232.723 21.176 231.451 22.328 229.531 22.328C227.563 22.328 226.291 21.2 226.291 18.56V12.92H228.331V9.2C225.403 9.2 222.547 9.2 219.643 9.2V12.92H221.587V18.56C221.587 23.72 224.563 26.384 229.531 26.384C234.451 26.384 237.475 23.576 237.427 18.608V12.92H239.371V9.2C236.491 9.2 233.611 9.2 230.707 9.2V12.92H232.723ZM255.319 10.76C253.399 9.248 251.431 8.744 249.007 8.744C245.767 8.744 241.927 10.328 241.927 14.024C241.927 18.176 245.407 19.136 248.815 19.448C250.663 19.64 251.647 20.072 251.647 20.888C251.647 21.848 250.567 22.4 248.983 22.4C248.119 22.4 247.111 22.256 246.103 21.872L246.031 19.928H241.927V24.128C244.039 25.904 246.223 26.48 248.959 26.456C252.751 26.432 256.375 24.776 256.375 20.984C256.375 17.024 252.799 15.968 249.511 15.632C247.831 15.464 246.679 15.152 246.679 14.024C246.679 12.896 248.119 12.608 249.007 12.608C249.775 12.608 250.495 12.68 251.143 12.872L251.215 14.816H255.319C255.319 13.472 255.319 12.104 255.319 10.76ZM272.118 20.672C270.99 21.824 269.502 22.328 268.11 22.328C265.35 22.304 263.55 20.408 263.55 17.6C263.55 14.936 265.206 12.872 268.158 12.872C268.71 12.872 269.286 12.92 269.886 13.136L270.006 15.824H274.038V10.976C272.502 9.464 270.294 8.768 268.158 8.768C261.846 8.768 258.798 13.28 258.846 17.6C258.87 23.24 262.71 26.456 268.11 26.432C270.774 26.408 273.006 25.64 274.902 23.792L272.118 20.672ZM279.414 12.968V22.256H277.614V26H292.614V19.304H288.462L288.27 21.968H284.19V12.968H286.182V9.2C283.278 9.2 280.35 9.2 277.494 9.2V12.968H279.414ZM306.804 21.992H302.004V19.448H306.036V15.752H302.004V13.16H306.492L306.588 14.84H310.188V9.2C305.268 9.2 300.372 9.2 295.452 9.2V12.92H297.3V22.256H295.452V26C300.468 26 305.508 26 310.5 26V20.312H306.9L306.804 21.992Z" fill="black"/>
</svg>
