<svg width="234" height="279" viewBox="0 0 234 279" fill="none" xmlns="http://www.w3.org/2000/svg">
<path d="M141.597 192.037C141.597 194.465 141.543 196.985 141.433 199.57C141.262 203.463 140.954 207.151 140.568 210.627C139.907 214.503 138.463 219.32 136.051 224.638C132.691 232.065 119.009 255.308 119.009 255.308C118.424 255.545 117.795 255.654 117.165 255.627C117.165 243.984 117.165 203.408 117.165 192.345C118.308 195.464 126.266 191.451 130.245 191.017C134.224 190.582 141.597 192.037 141.597 192.037Z" fill="#B3B4B4" stroke="white" stroke-width="3" stroke-linecap="round" stroke-linejoin="round"/>
<path d="M92.7295 192.037C92.7295 194.465 92.7842 196.985 92.8937 199.57C93.0648 203.463 93.3727 207.151 93.7627 210.627C94.4231 214.503 95.8669 219.32 98.279 224.638C101.635 232.065 115.321 255.308 115.321 255.308C115.906 255.545 116.535 255.654 117.165 255.627C117.165 243.984 117.165 203.408 117.165 192.345C116.026 195.464 108.064 191.451 104.085 191.017C100.106 190.582 92.7295 192.037 92.7295 192.037Z" fill="#B3B4B4" stroke="white" stroke-width="3" stroke-linecap="round" stroke-linejoin="round"/>
<path d="M117.162 153.361V174.269C118.284 179.433 123.587 176.71 128.244 176.276C131.833 175.933 140.821 176.173 141.139 176.187C140.869 170.708 140.455 164.825 140.113 163.651C140.013 163.29 139.937 162.922 139.883 162.552H139.774H139.716C138.576 162.449 132.931 161.908 128.483 161.096H128.415C127.162 160.891 125.992 160.672 124.993 160.449C118.821 159.004 117.162 153.998 117.162 153.361Z" fill="#B3B4B4" stroke="white" stroke-width="3" stroke-linecap="round" stroke-linejoin="round"/>
<path d="M117.161 153.361V174.249C117.161 174.249 117.161 174.249 117.161 174.266C116.042 179.429 110.746 176.707 106.086 176.272C102.497 175.93 93.5086 176.169 93.1904 176.183C93.4607 170.705 93.8747 164.822 94.2169 163.647C94.3159 163.286 94.3925 162.919 94.4461 162.548H94.559H94.6171C95.7565 162.446 101.402 161.905 105.846 161.093H105.918C107.167 160.888 108.337 160.668 109.319 160.446C115.512 159.004 117.161 153.998 117.161 153.361Z" fill="#B3B4B4" stroke="white" stroke-width="3" stroke-linecap="round" stroke-linejoin="round"/>
<path d="M117.162 174.252C117.162 174.252 117.162 174.937 117.162 176.077C117.162 179.299 117.162 186.031 117.162 190.003V192.359C116.023 195.478 108.068 191.465 104.089 191.03C100.109 190.595 92.7295 192.033 92.7295 192.033C92.7295 190.955 92.7295 189.794 92.7637 188.753C92.7945 187.589 92.8287 186.452 92.8766 185.329C92.8766 183.778 93.0374 180.748 93.1914 177.364C93.2119 176.995 93.1708 176.563 93.1914 176.187C93.5096 176.187 102.498 175.933 106.087 176.276C110.747 176.71 116.043 179.433 117.162 174.269C117.165 174.262 117.162 174.259 117.162 174.252Z" fill="#B3B4B4" stroke="white" stroke-width="3" stroke-linecap="round" stroke-linejoin="round"/>
<path d="M141.597 192.037C141.597 192.037 134.221 190.595 130.238 191.03C126.256 191.465 118.301 195.482 117.158 192.359V174.252C118.274 179.44 123.577 176.71 128.24 176.276C131.829 175.933 140.817 176.173 141.136 176.187C141.156 176.563 141.115 176.995 141.136 177.364C141.29 180.748 141.45 183.778 141.45 185.329C141.498 186.452 141.536 187.589 141.563 188.753C141.563 188.996 141.563 189.239 141.563 189.493C141.597 190.328 141.597 191.208 141.597 192.037Z" fill="#B3B4B4" stroke="white" stroke-width="3" stroke-linecap="round" stroke-linejoin="round"/>
<path d="M124.996 160.415C129.865 161.524 139.448 162.511 139.886 162.552C139.413 159.3 139.161 156.02 139.134 152.735C139.082 151.057 139.189 149.379 139.452 147.722C139.767 146.174 141.895 142.116 142.11 141.979C138.303 142.884 134.377 143.179 130.477 142.853C124.025 142.274 117.582 140.113 117.171 137.148C117.171 137.148 117.171 146.845 117.171 153.361C117.161 153.998 118.817 159.004 124.996 160.415Z" fill="#B3B4B4" stroke="white" stroke-width="3" stroke-linecap="round" stroke-linejoin="round"/>
<path d="M109.333 160.415C104.465 161.524 94.8845 162.511 94.4466 162.552C94.9201 159.3 95.1716 156.02 95.1993 152.735C95.2508 151.057 95.1443 149.379 94.8811 147.722C94.5663 146.174 92.4382 142.116 92.2227 141.979C96.0298 142.884 99.9561 143.179 103.855 142.853C110.308 142.274 116.751 140.113 117.161 137.148V153.361C117.168 153.998 115.512 159.004 109.333 160.415Z" fill="#B3B4B4" stroke="white" stroke-width="3" stroke-linecap="round" stroke-linejoin="round"/>
<path d="M139.134 152.735C139.16 156.02 139.411 159.3 139.886 162.552C139.942 162.922 140.018 163.289 140.116 163.651C140.116 163.651 148.806 164.103 153.298 162.552H153.322C153.731 162.349 154.154 162.177 154.588 162.038V162.038C156.846 160.977 158.465 159.371 159.221 157.662C159.533 156.982 159.696 156.243 159.7 155.494C159.7 153.44 157.705 152.296 155.635 151.69C154.122 151.282 152.568 151.041 151.003 150.971C146.237 152.481 139.134 152.735 139.134 152.735Z" fill="#B3B4B4" stroke="white" stroke-width="3" stroke-linecap="round" stroke-linejoin="round"/>
<path d="M159.731 155.477C159.727 156.226 159.564 156.965 159.252 157.645C163.084 154.111 162.766 149.266 162.766 149.266C162 147.831 161.103 146.04 160.303 144.13C160.347 145.699 159.934 147.248 159.113 148.586C158.292 149.924 157.099 150.993 155.68 151.663C157.719 152.279 159.7 153.409 159.731 155.477Z" fill="#B3B4B4" stroke="white" stroke-width="3" stroke-linecap="round" stroke-linejoin="round"/>
<path d="M158.362 138.209C158.386 138.316 158.403 138.422 158.434 138.552C158.878 140.469 159.498 142.34 160.285 144.143C161.086 146.051 161.996 147.842 162.748 149.28C163.799 151.245 164.606 152.543 164.606 152.543C163.238 147.845 161.9 142.229 162.071 138.548C162.259 134.566 163.498 130.967 164.586 128.276L164.462 128.392C163.655 129.166 159.406 133.238 158.181 134.234C158.001 135.559 158.062 136.906 158.362 138.209V138.209Z" fill="#B3B4B4" stroke="white" stroke-width="3" stroke-linecap="round" stroke-linejoin="round"/>
<path d="M75.9716 138.209C75.9477 138.316 75.9306 138.422 75.8998 138.552C75.4553 140.469 74.8357 142.34 74.0488 144.143C73.2482 146.051 72.3381 147.842 71.5854 149.28C70.535 151.245 69.7275 152.543 69.7275 152.543C71.0961 147.845 72.4339 142.229 72.2628 138.548C72.0746 134.566 70.8361 130.967 69.7447 128.276L69.8713 128.392C70.6787 129.166 74.9281 133.238 76.153 134.234C76.3328 135.559 76.2713 136.906 75.9716 138.209V138.209Z" fill="#B3B4B4" stroke="white" stroke-width="3" stroke-linecap="round" stroke-linejoin="round"/>
<path d="M151.03 150.947C152.596 151.017 154.15 151.258 155.663 151.666C157.082 150.996 158.275 149.927 159.096 148.589C159.917 147.251 160.33 145.703 160.285 144.133V144.133C159.498 142.33 158.879 140.458 158.434 138.542C158.249 139.473 157.384 142.623 153.61 144.705C154.52 145.352 155.143 146.167 155.287 147.177C155.526 148.913 153.617 150.115 151.03 150.947Z" fill="#B3B4B4" stroke="white" stroke-width="3" stroke-linecap="round" stroke-linejoin="round"/>
<path d="M139.134 152.735C139.134 152.735 146.237 152.481 151.03 150.947C153.617 150.115 155.526 148.913 155.287 147.181C155.143 146.153 154.52 145.356 153.61 144.708C150.045 142.13 142.111 141.993 142.111 141.993C141.892 142.13 139.77 146.188 139.452 147.735C139.188 149.388 139.082 151.062 139.134 152.735V152.735Z" fill="#B3B4B4" stroke="white" stroke-width="3" stroke-linecap="round" stroke-linejoin="round"/>
<path d="M95.1997 152.735C95.1997 152.735 88.0968 152.481 83.3034 150.947C80.7168 150.115 78.8076 148.913 79.0471 147.181C79.1908 146.153 79.8135 145.356 80.7202 144.708C84.2887 142.13 92.223 141.993 92.223 141.993C92.442 142.13 94.5633 146.188 94.8815 147.735C95.1438 149.388 95.2503 151.062 95.1997 152.735V152.735Z" fill="#B3B4B4" stroke="white" stroke-width="3" stroke-linecap="round" stroke-linejoin="round"/>
<path d="M141.197 177.313C141.355 180.693 141.457 183.778 141.457 185.329C141.502 186.452 141.539 187.589 141.567 188.753C141.567 188.753 151.903 189.301 157.36 181.1C157.637 178.292 157.914 175.916 158.157 174.447C158.157 174.447 158.157 174.416 158.157 174.368C158.239 173.992 158.554 172.872 159.002 171.317C153.552 177.227 141.197 177.313 141.197 177.313Z" fill="#B3B4B4" stroke="white" stroke-width="3" stroke-linecap="round" stroke-linejoin="round"/>
<path d="M140.116 163.651C140.458 164.822 140.865 170.705 141.142 176.187C141.163 176.563 141.183 176.94 141.2 177.313C141.2 177.313 153.555 177.231 159.016 171.317C159.515 169.605 160.182 167.335 160.884 164.993C160.884 164.993 160.86 162.99 159.717 162.298C157.965 161.247 155.909 161.613 154.605 162.021C154.194 162.217 153.771 162.388 153.339 162.535H153.316C148.806 164.103 140.116 163.651 140.116 163.651Z" fill="#B3B4B4" stroke="white" stroke-width="3" stroke-linecap="round" stroke-linejoin="round"/>
<path d="M154.599 162.021C155.902 161.603 157.958 161.247 159.71 162.298C160.853 162.983 160.877 164.993 160.877 164.993C162.622 159.138 164.565 152.711 164.606 152.546C164.606 152.546 163.799 151.249 162.748 149.283C162.748 149.283 163.067 154.128 159.235 157.662C158.479 159.353 156.86 160.959 154.599 162.021Z" fill="#B3B4B4" stroke="white" stroke-width="3" stroke-linecap="round" stroke-linejoin="round"/>
<path d="M142.107 141.979C142.107 141.979 150.042 142.116 153.61 144.695C157.374 142.616 158.25 139.466 158.431 138.531C158.404 138.418 158.383 138.312 158.359 138.189C158.059 136.88 157.998 135.527 158.178 134.196C157.583 134.686 154.212 137.692 152.666 138.514C150.22 139.815 142.279 141.911 142.125 141.938C142.122 141.937 142.119 141.937 142.116 141.937C142.113 141.937 142.11 141.937 142.108 141.938C142.105 141.939 142.102 141.941 142.1 141.943C142.098 141.945 142.097 141.948 142.095 141.95C142.094 141.953 142.094 141.956 142.094 141.959C142.094 141.962 142.094 141.965 142.095 141.967C142.097 141.97 142.098 141.973 142.1 141.975C142.102 141.977 142.105 141.978 142.107 141.979Z" fill="#B3B4B4" stroke="white" stroke-width="3" stroke-linecap="round" stroke-linejoin="round"/>
<path d="M95.2 152.735C95.1748 156.021 94.9222 159.301 94.4438 162.552C94.3919 162.923 94.3153 163.29 94.2146 163.651C94.2146 163.651 85.5276 164.103 81.0353 162.552H81.0113C80.6017 162.349 80.1774 162.177 79.742 162.038C77.4838 160.977 75.8621 159.371 75.1094 157.662C74.7962 156.982 74.6329 156.243 74.6304 155.494C74.6304 153.44 76.6251 152.296 78.6916 151.69C80.2049 151.282 81.7584 151.041 83.3242 150.971C88.0971 152.481 95.2 152.735 95.2 152.735Z" fill="#B3B4B4" stroke="white" stroke-width="3" stroke-linecap="round" stroke-linejoin="round"/>
<path d="M74.6199 155.477C74.6224 156.226 74.7857 156.965 75.0989 157.645C71.2669 154.111 71.5851 149.266 71.5851 149.266C72.3515 147.831 73.2479 146.04 74.0485 144.13C74.0023 145.7 74.4152 147.249 75.2363 148.587C76.0574 149.925 77.2511 150.994 78.6708 151.663C76.6145 152.279 74.6336 153.409 74.6199 155.477Z" fill="#B3B4B4" stroke="white" stroke-width="3" stroke-linecap="round" stroke-linejoin="round"/>
<path d="M92.2196 141.979C92.0657 141.979 84.2545 142.14 80.7236 144.691C76.96 142.616 76.0842 139.466 75.8994 138.528C75.9302 138.415 75.9473 138.309 75.9713 138.185C76.273 136.877 76.3345 135.524 76.1526 134.193C76.7479 134.683 80.1214 137.689 81.6645 138.511C84.1108 139.812 92.052 141.908 92.2059 141.935L92.2196 141.979Z" fill="#B3B4B4" stroke="white" stroke-width="3" stroke-linecap="round" stroke-linejoin="round"/>
<path d="M83.3029 150.947C81.7371 151.017 80.1836 151.258 78.6703 151.666C77.2506 150.997 76.0569 149.928 75.2357 148.59C74.4146 147.252 74.0018 145.703 74.0479 144.133V144.133C74.836 142.327 75.4579 140.454 75.9058 138.535C76.0871 139.466 76.9561 142.616 80.7265 144.698C79.8199 145.345 79.1937 146.16 79.0535 147.17C78.8037 148.913 80.7163 150.115 83.3029 150.947Z" fill="#B3B4B4" stroke="white" stroke-width="3" stroke-linecap="round" stroke-linejoin="round"/>
<path d="M115.321 255.322C108.892 253.952 86.581 247.289 77.001 219.879C77.5005 215.441 78.0023 211.004 78.5064 206.569C78.8759 204.881 77.9179 190.534 76.9771 181.1C82.3145 189.123 92.3221 188.77 92.7532 188.757C92.7259 189.784 92.7156 190.852 92.7156 191.934C92.7156 194.395 92.7703 196.946 92.8798 199.587C93.0509 203.48 93.3588 207.168 93.7489 210.644C94.4092 214.52 95.853 219.338 98.2651 224.655C101.635 232.079 115.321 255.322 115.321 255.322Z" fill="#B3B4B4" stroke="white" stroke-width="3" stroke-linecap="round" stroke-linejoin="round"/>
<path d="M93.1366 177.313C92.9758 180.693 92.8766 183.778 92.8766 185.329C92.8287 186.452 92.7945 187.589 92.7637 188.753C92.7637 188.753 82.431 189.301 76.9738 181.1C76.6967 178.292 76.4196 175.916 76.1767 174.447C76.1749 174.421 76.1749 174.395 76.1767 174.368C76.0911 173.992 75.7797 172.872 75.3315 171.317C80.7819 177.227 93.1366 177.313 93.1366 177.313Z" fill="#B3B4B4" stroke="white" stroke-width="3" stroke-linecap="round" stroke-linejoin="round"/>
<path d="M94.2143 163.651C93.8722 164.822 93.465 170.705 93.1879 176.187C93.1639 176.563 93.1468 176.94 93.1297 177.313C93.1297 177.313 80.775 177.231 75.3144 171.317C74.8148 169.605 74.1477 167.335 73.4463 164.993C73.4463 164.993 73.4702 162.99 74.613 162.298C76.3647 161.247 78.421 161.613 79.7246 162.021C80.1376 162.216 80.5614 162.388 80.9939 162.535H81.0179C85.5273 164.103 94.2143 163.651 94.2143 163.651Z" fill="#B3B4B4" stroke="white" stroke-width="3" stroke-linecap="round" stroke-linejoin="round"/>
<path d="M79.7313 162.021C78.4277 161.603 76.3714 161.247 74.6197 162.298C73.4769 162.983 73.453 164.993 73.453 164.993C71.708 159.138 69.7613 152.711 69.7202 152.546C69.7202 152.546 70.5276 151.249 71.578 149.283C71.578 149.283 71.2598 154.128 75.0918 157.662C75.8514 159.353 77.4732 160.959 79.7313 162.021Z" fill="#B3B4B4" stroke="white" stroke-width="3" stroke-linecap="round" stroke-linejoin="round"/>
<path d="M155.827 206.569C156.334 211.007 156.837 215.443 157.336 219.879C147.756 247.272 125.442 253.945 119.016 255.322C119.016 255.322 132.702 232.079 136.058 224.652C138.453 219.334 139.914 214.516 140.575 210.64C140.961 207.165 141.259 203.477 141.44 199.584C141.55 196.985 141.601 194.465 141.604 192.051C141.604 191.222 141.604 190.339 141.584 189.506C141.584 189.26 141.584 189.013 141.584 188.767C142.015 188.767 152.023 189.133 157.36 181.11C156.416 190.534 155.461 204.881 155.827 206.569Z" fill="#B3B4B4" stroke="white" stroke-width="3" stroke-linecap="round" stroke-linejoin="round"/>
<path d="M208.069 232.062C207.976 232.219 205.044 237.307 204.052 239.376C203.06 241.444 201.421 246.433 201.421 246.433C201.342 246.09 201.253 245.768 201.154 245.457C200.238 242.353 200.416 239.029 201.657 236.041C202.423 234.109 206.081 232.168 206.197 232.106C206.772 232.082 207.412 232.065 208.069 232.062Z" fill="#B3B4B4" stroke="white" stroke-width="3" stroke-linecap="round" stroke-linejoin="round"/>
<path d="M217.553 253.62C216.527 254.462 208.066 257.044 205.212 256.359C202.448 255.709 199.574 255.822 199.276 255.229V255.161C200.092 254.326 200.746 253.348 201.206 252.274C201.955 250.624 201.89 248.361 201.445 246.426C201.445 246.426 203.07 241.471 204.076 239.369C205.082 237.266 208.001 232.212 208.093 232.055C208.038 232.223 206.574 236.821 207.48 238.561C208.192 239.93 213.297 242.56 216.52 243.639C216.52 243.639 216.811 246.467 217.567 247.898C218.323 249.33 218.549 252.778 217.553 253.62Z" fill="#B3B4B4" stroke="white" stroke-width="3" stroke-linecap="round" stroke-linejoin="round"/>
<path d="M232.33 253.367C232.33 253.367 230.315 254.88 228.467 254.209C226.62 253.538 218.802 246.135 218.802 246.135L228.04 269.265C228.04 269.265 228.796 270.861 227.787 271.621C226.777 272.381 225.183 271.449 224.594 270.357C224.006 269.265 218.207 255.291 217.365 255.469C216.523 255.647 216.106 255.555 216.106 256.561C216.106 257.568 220.307 273.384 220.054 275.052C219.801 276.719 218.963 276.983 218.292 276.983C217.622 276.983 216.948 275.723 216.609 274.295C216.27 272.867 212.407 258.058 211.819 258.058C211.23 258.058 209.547 257.472 209.465 258.65C209.383 259.828 212.825 272.442 212.739 273.874C212.654 275.305 212.154 275.973 211.648 276.226C211.27 276.388 210.849 276.418 210.452 276.311C210.056 276.205 209.707 275.967 209.461 275.637C208.876 274.798 205.681 259.407 205.26 259.071C204.839 258.736 204.001 258.143 204.001 258.9C204.001 259.657 205.01 270.34 204.685 271.35C204.608 271.559 204.489 271.75 204.336 271.911C204.182 272.072 203.997 272.2 203.792 272.287C203.587 272.374 203.367 272.417 203.144 272.415C202.922 272.413 202.702 272.365 202.499 272.275C201.815 271.932 200.063 258.9 199.892 258.397C199.84 258.236 199.604 256.965 199.266 255.223C199.563 255.815 202.437 255.702 205.202 256.352C208.055 257.037 216.534 254.445 217.543 253.613C218.552 252.781 218.299 249.323 217.543 247.895C216.787 246.467 216.496 243.635 216.496 243.635C217.205 243.919 217.957 244.08 218.72 244.111C220.653 243.94 222.483 240.745 222.483 240.745C223.845 242.94 232.33 253.367 232.33 253.367Z" fill="#B3B4B4" stroke="white" stroke-width="3" stroke-linecap="round" stroke-linejoin="round"/>
<path d="M222.501 240.752C222.501 240.752 220.653 243.947 218.737 244.118C217.974 244.087 217.222 243.926 216.513 243.642C213.3 242.563 208.185 239.92 207.474 238.564C206.567 236.831 208.031 232.233 208.086 232.058H208.982C210.58 232.058 212.137 232.127 212.975 232.164L212.883 232.058C212.883 232.058 221.156 238.564 222.501 240.752Z" fill="#B3B4B4" stroke="white" stroke-width="3" stroke-linecap="round" stroke-linejoin="round"/>
<path d="M201.657 236.044C200.416 239.032 200.239 242.357 201.154 245.46C201.253 245.772 201.342 246.101 201.421 246.436C201.873 248.371 201.931 250.634 201.182 252.285C200.722 253.358 200.068 254.337 199.252 255.171C198.54 251.5 197.37 245.806 196.426 243.967C195.328 241.824 195.591 235.657 195.926 235.407C196.395 234.404 200.521 232.983 203.731 232.39C204.295 232.291 204.839 232.216 205.322 232.168C205.588 232.144 205.883 232.123 206.197 232.11C206.081 232.171 202.424 234.113 201.657 236.044Z" fill="#B3B4B4" stroke="white" stroke-width="3" stroke-linecap="round" stroke-linejoin="round"/>
<path d="M26.8775 238.564C26.1658 239.934 21.0611 242.563 17.8381 243.642C17.1291 243.926 16.3771 244.087 15.6142 244.118C13.681 243.947 11.8506 240.752 11.8506 240.752C13.1952 238.564 21.4819 232.062 21.4819 232.062L21.3929 232.168C22.2312 232.13 23.7879 232.072 25.3857 232.062H26.2821C26.3198 232.233 27.7841 236.831 26.8775 238.564Z" fill="#B3B4B4" stroke="white" stroke-width="3" stroke-linecap="round" stroke-linejoin="round"/>
<path d="M35.0784 255.171C35.0751 255.194 35.0751 255.217 35.0784 255.24V255.24C34.7739 255.829 31.9067 255.716 29.1456 256.366C26.2887 257.051 17.8139 254.459 16.8046 253.627C15.7953 252.795 16.0484 249.336 16.8046 247.909C17.5607 246.481 17.8515 243.649 17.8515 243.649C21.0642 242.57 26.1793 239.927 26.8909 238.571C27.7976 236.838 26.3332 232.24 26.2785 232.065C26.3709 232.223 29.303 237.311 30.2952 239.379C31.2874 241.447 32.9229 246.436 32.9229 246.436C32.4747 248.371 32.4131 250.634 33.1658 252.285C33.6206 253.356 34.269 254.335 35.0784 255.171V255.171Z" fill="#B3B4B4" stroke="white" stroke-width="3" stroke-linecap="round" stroke-linejoin="round"/>
<path d="M35.0646 255.243C34.7225 256.982 34.4933 258.253 34.4385 258.414C34.2709 258.917 32.5054 271.956 31.8348 272.292C31.6315 272.382 31.4119 272.43 31.1894 272.432C30.9668 272.434 30.7462 272.391 30.5413 272.304C30.3363 272.217 30.1513 272.09 29.9977 271.928C29.8442 271.767 29.7253 271.576 29.6485 271.367C29.3064 270.34 30.3328 259.674 30.3328 258.917C30.3328 258.16 29.4911 258.749 29.0703 259.088C28.6495 259.427 25.4573 274.815 24.8722 275.654C24.627 275.984 24.2779 276.222 23.8812 276.329C23.4845 276.435 23.0634 276.405 22.6859 276.243C22.1795 275.99 21.6595 275.319 21.5911 273.891C21.5226 272.463 24.9543 259.852 24.8688 258.667C24.7832 257.482 23.1067 258.075 22.5148 258.075C21.9229 258.075 18.067 272.881 17.7248 274.312C17.3827 275.743 16.6984 277 16.0415 277C15.3846 277 14.5293 276.747 14.2761 275.069C14.0229 273.391 18.2278 257.571 18.2278 256.578C18.2278 255.585 17.807 255.654 16.9687 255.486C16.1305 255.318 10.3277 269.282 9.73926 270.374C9.15077 271.467 7.55298 272.395 6.54366 271.638C5.53434 270.881 6.29388 269.282 6.29388 269.282L15.5317 246.152C15.5317 246.152 7.71377 253.551 5.8662 254.226C4.01864 254.901 2 253.384 2 253.384C2 253.384 10.4885 242.957 11.8332 240.769C11.8332 240.769 13.6807 243.964 15.5967 244.135C16.3597 244.104 17.1117 243.943 17.8207 243.659C17.8207 243.659 17.5299 246.487 16.7737 247.919C16.0176 249.35 15.7678 252.795 16.7737 253.637C17.7796 254.479 26.2579 257.061 29.1148 256.376C31.893 255.719 34.7601 255.832 35.0646 255.243Z" fill="#B3B4B4" stroke="white" stroke-width="3" stroke-linecap="round" stroke-linejoin="round"/>
<path d="M33.1793 245.46C33.0801 245.772 32.9911 246.101 32.909 246.436C32.909 246.436 31.2873 241.481 30.2814 239.379C29.2755 237.277 26.357 232.223 26.2646 232.065C26.9181 232.065 27.5579 232.086 28.1327 232.113C28.2456 232.175 31.8963 234.116 32.673 236.047C33.9111 239.035 34.0898 242.357 33.1793 245.46Z" fill="#B3B4B4" stroke="white" stroke-width="3" stroke-linecap="round" stroke-linejoin="round"/>
<path d="M37.9078 243.967C36.9635 245.806 35.7934 251.5 35.0783 255.171C34.264 254.336 33.6109 253.357 33.152 252.285C32.3993 250.634 32.4677 248.371 32.9091 246.436C32.9912 246.094 33.0802 245.772 33.1794 245.46C34.0918 242.356 33.9143 239.033 32.6765 236.044C31.9066 234.113 28.2491 232.171 28.1362 232.11C28.4476 232.11 28.7418 232.144 29.0121 232.168C29.4945 232.216 30.0385 232.291 30.6031 232.39C33.8089 232.983 37.9352 234.404 38.4073 235.407C38.7426 235.657 39.0061 241.824 37.9078 243.967Z" fill="#B3B4B4" stroke="white" stroke-width="3" stroke-linecap="round" stroke-linejoin="round"/>
<path d="M203.731 232.39C200.521 232.983 196.395 234.404 195.926 235.407C196.101 234.794 196.744 229.747 194.9 226.912C187.763 215.896 180.102 203.997 177.646 191.808C175.836 182.823 176.814 177.834 176.814 177.834L176.866 177.885C177.572 177.613 178.297 177.392 179.035 177.224C179.131 177.7 183.141 197.896 191.379 208.976C198.342 218.317 203.731 232.39 203.731 232.39Z" fill="#B3B4B4" stroke="white" stroke-width="3" stroke-linecap="round" stroke-linejoin="round"/>
<path d="M208.965 232.062H208.069C207.412 232.062 206.772 232.082 206.197 232.11C205.883 232.11 205.588 232.144 205.321 232.168C204.839 232.216 204.295 232.291 203.731 232.39C203.731 232.39 198.342 218.327 191.386 208.976C183.144 197.896 179.137 177.7 179.042 177.224C182.577 176.463 186.267 176.935 189.497 178.563C189.723 179.19 189.911 184.439 194.924 195.119C199.163 204.189 207.686 222.426 208.965 232.062Z" fill="#B3B4B4" stroke="white" stroke-width="3" stroke-linecap="round" stroke-linejoin="round"/>
<path d="M212.958 232.168C212.12 232.13 210.563 232.072 208.965 232.062C207.686 222.416 199.163 204.189 194.907 195.119C189.894 184.439 189.706 179.19 189.48 178.563C189.48 178.563 188.912 172.567 190.219 169.397C192.039 164.983 193.962 161.398 194.445 158.374C194.544 159.35 194.934 162.069 196.371 167.089C198.219 173.595 202.14 174.776 203.837 180.823C205.534 186.87 212.866 232.062 212.866 232.062L212.958 232.168Z" fill="#B3B4B4" stroke="white" stroke-width="3" stroke-linecap="round" stroke-linejoin="round"/>
<path d="M194.493 158.052C194.493 158.152 194.462 158.251 194.445 158.354C193.963 161.377 192.05 164.962 190.219 169.376C188.912 172.547 189.48 178.542 189.48 178.542C187.547 177.543 185.423 176.965 183.25 176.847C181.077 176.729 178.903 177.073 176.873 177.858L176.821 177.806C172.623 173.386 167.871 162.035 167.316 160.631C166.899 159.562 165.739 156.354 164.61 152.519C163.242 147.824 161.907 142.212 162.075 138.531C162.263 134.58 163.484 130.998 164.569 128.321C164.569 128.297 164.586 128.276 164.596 128.256C165.353 126.434 166.03 125.033 166.28 124.194C166.879 122.191 169.072 113.58 168.712 110.385C168.712 110.296 168.682 110.221 168.682 110.152L184.318 123.506L192.159 130.197V130.214C192.159 130.214 194.53 134.744 194.838 147.335C194.992 152.474 194.787 155.861 194.493 158.052Z" fill="#B3B4B4" stroke="white" stroke-width="3" stroke-linecap="round" stroke-linejoin="round"/>
<path d="M39.8408 158.052C39.8408 158.152 39.8716 158.251 39.8887 158.354C40.3711 161.377 42.2837 164.962 44.1142 169.376C45.4211 172.547 44.8498 178.542 44.8498 178.542C46.784 177.542 48.9082 176.964 51.0821 176.846C53.2559 176.728 55.4301 177.073 57.4611 177.858L57.5125 177.806C61.7106 173.386 66.4629 162.035 67.0172 160.631C67.4346 159.562 68.5945 156.354 69.7235 152.519V152.495C71.0921 147.8 72.4264 142.188 72.2554 138.507C72.0706 134.556 70.8492 130.974 69.7646 128.297C69.7646 128.273 69.7646 128.252 69.7372 128.232C68.9845 126.41 68.3037 125.009 68.0573 124.171C67.4586 122.167 65.2654 113.556 65.6246 110.361C65.6246 110.272 65.652 110.197 65.652 110.128L50.0195 123.482L42.1777 130.173L42.1605 130.19C42.1605 130.19 39.7895 134.72 39.4816 147.311C39.3379 152.474 39.5466 155.861 39.8408 158.052Z" fill="#B3B4B4" stroke="white" stroke-width="3" stroke-linecap="round" stroke-linejoin="round"/>
<path d="M56.6812 191.808C54.2246 203.997 46.5606 215.896 39.4269 226.912C37.5862 229.747 38.2294 234.787 38.4005 235.407C37.9283 234.404 33.8021 232.983 30.5962 232.39C30.5962 232.39 35.985 218.327 42.9407 208.976C51.1829 197.896 55.1894 177.7 55.2818 177.224C56.0209 177.392 56.7469 177.613 57.4544 177.885L57.5057 177.834C57.5057 177.834 58.4911 182.823 56.6812 191.808Z" fill="#B3B4B4" stroke="white" stroke-width="3" stroke-linecap="round" stroke-linejoin="round"/>
<path d="M55.2885 177.228C55.1961 177.703 51.1828 197.899 42.9474 208.98C35.9917 218.331 30.6029 232.394 30.6029 232.394C30.035 232.294 29.4944 232.219 29.0119 232.171C28.7416 232.147 28.4474 232.127 28.1361 232.113C27.5613 232.086 26.9215 232.068 26.268 232.065H25.3716C26.6512 222.419 35.1739 204.193 39.4302 195.122C44.4426 184.442 44.6308 179.193 44.8531 178.566C48.0779 176.944 51.7592 176.472 55.2885 177.228V177.228Z" fill="#B3B4B4" stroke="white" stroke-width="3" stroke-linecap="round" stroke-linejoin="round"/>
<path d="M44.8499 178.563C44.6275 179.19 44.4393 184.439 39.4269 195.119C35.1707 204.189 26.6479 222.416 25.3683 232.062C23.7705 232.062 22.2137 232.13 21.3755 232.168L21.4644 232.062C21.4644 232.062 28.8 186.863 30.497 180.823C32.194 174.783 36.115 173.577 37.9591 167.089C39.3961 162.069 39.7862 159.35 39.8888 158.374C40.3712 161.398 42.2838 164.983 44.1143 169.397C45.4212 172.567 44.8499 178.563 44.8499 178.563Z" fill="#B3B4B4" stroke="white" stroke-width="3" stroke-linecap="round" stroke-linejoin="round"/>
<path d="M74.8216 98.8903C74.7737 99.0135 74.7224 99.1368 74.6608 99.2601C74.6537 99.2859 74.6421 99.3102 74.6266 99.332C73.5386 101.585 70.7193 104.294 68.5125 106.553C68.4892 106.58 68.464 106.605 68.4373 106.629C67.6119 107.406 66.8445 108.242 66.1415 109.132C65.9351 109.438 65.7674 109.768 65.6419 110.115L50.0061 123.469L42.1676 130.159L42.147 130.177C42.147 130.177 35.8585 102.647 45.045 93.7404C54.3855 84.6972 67.2226 86.2073 69.4808 86.0053L78.3183 88.0597C78.3183 88.0597 78.4825 89.4499 74.8216 98.8903Z" fill="#6C3EC9" fill-opacity="0.62" stroke="white" stroke-width="3" stroke-linecap="round" stroke-linejoin="round"/>
<path d="M117.166 101.694V137.165C116.755 140.117 110.323 142.301 103.863 142.87C99.9637 143.194 96.0376 142.9 92.2302 141.997C92.0762 141.959 84.1351 139.863 81.6888 138.572C80.1458 137.751 76.7722 134.744 76.1769 134.255C74.9521 133.255 70.7026 129.187 69.8918 128.413C69.8336 128.355 69.7857 128.314 69.772 128.297C69.0124 126.475 68.335 125.074 68.0887 124.236C67.4865 122.232 65.2968 113.621 65.6526 110.426C65.6526 110.337 65.6868 110.262 65.6868 110.193C65.8104 109.843 65.977 109.509 66.1829 109.2C66.886 108.311 67.6533 107.474 68.4787 106.697C68.5055 106.674 68.5306 106.649 68.554 106.622C70.7608 104.362 73.5801 101.653 74.6681 99.4003C74.6836 99.3785 74.6951 99.3542 74.7023 99.3284C74.7639 99.2051 74.8152 99.0819 74.8631 98.9586C78.524 89.5183 78.3734 88.1315 78.3734 88.1315C78.7601 87.9671 98.5325 87.1042 105.656 88.3506C105.656 88.3506 111.472 88.4362 114.552 90.6208C116.474 91.9665 117.114 91.3193 117.166 101.694Z" fill="#6C3EC9" fill-opacity="0.62" stroke="white" stroke-width="3" stroke-linecap="round" stroke-linejoin="round"/>
<path d="M192.19 130.17L192.17 130.152L184.324 123.469L168.689 110.114C168.565 109.764 168.398 109.431 168.192 109.121C167.488 108.233 166.721 107.396 165.897 106.618C165.869 106.595 165.842 106.57 165.818 106.543C163.618 104.283 160.795 101.575 159.707 99.3216C159.693 99.2983 159.681 99.2743 159.67 99.2497C159.611 99.1264 159.56 99.0031 159.512 98.8799C155.851 89.4395 156.002 88.0527 156.002 88.0527L164.836 85.9983C167.094 86.2037 179.935 84.6902 189.272 93.7334C198.472 102.64 192.19 130.17 192.19 130.17Z" fill="#6C3EC9" fill-opacity="0.62" stroke="white" stroke-width="3" stroke-linecap="round" stroke-linejoin="round"/>
<path d="M117.165 101.694V137.165C117.576 140.117 124.008 142.301 130.471 142.87C134.37 143.194 138.296 142.9 142.104 141.997V141.997C142.258 141.959 150.199 139.863 152.642 138.572C154.188 137.751 157.562 134.744 158.154 134.255C159.382 133.255 163.628 129.187 164.439 128.413L164.562 128.297C165.322 126.475 165.999 125.074 166.245 124.236C166.844 122.232 169.037 113.621 168.681 110.426C168.681 110.337 168.647 110.262 168.647 110.193C168.524 109.843 168.357 109.509 168.151 109.2C167.447 108.312 166.68 107.475 165.855 106.697C165.829 106.674 165.803 106.649 165.78 106.622C163.573 104.362 160.754 101.653 159.666 99.4003C159.649 99.3794 159.637 99.3547 159.632 99.3284C159.57 99.2051 159.519 99.0819 159.471 98.9586C155.81 89.5183 155.961 88.1315 155.961 88.1315C155.574 87.9671 135.802 87.1042 128.675 88.3506C128.675 88.3506 122.858 88.4362 119.796 90.6208C117.86 91.9665 117.22 91.3193 117.165 101.694Z" fill="#6C3EC9" fill-opacity="0.62" stroke="white" stroke-width="3" stroke-linecap="round" stroke-linejoin="round"/>
<path d="M105.607 88.2753C98.4839 87.0289 78.7114 87.8918 78.3248 88.0562L69.4873 86.0017C69.7508 85.9024 89.116 81.3483 93.5878 77.318C97.3035 73.9761 99.3666 63.0291 99.5753 61.8786L99.5958 61.7827C99.719 61.9574 105.214 69.7918 106.322 75.0307L106.363 75.2396C107.383 80.256 107.28 86.6762 105.607 88.2753Z" fill="#B3B4B4" stroke="white" stroke-width="3" stroke-linecap="round" stroke-linejoin="round"/>
<path d="M128.722 88.2753C135.849 87.0289 155.622 87.8918 156.008 88.0562L164.846 86.0017C164.582 85.9024 145.217 81.3483 140.742 77.318C137.03 73.9761 134.963 63.0291 134.758 61.8786L134.737 61.7827C134.617 61.9574 129.123 69.7918 128.014 75.0307L127.973 75.2396C126.95 80.256 127.053 86.6762 128.722 88.2753Z" fill="#B3B4B4" stroke="white" stroke-width="3" stroke-linecap="round" stroke-linejoin="round"/>
<path d="M134.755 61.7793C134.33 59.242 134.755 56.6808 135.175 55.1228C129.137 66.7923 119.259 70.9868 117.179 70.9868C115.099 70.9868 105.289 66.8196 99.2471 55.2358C99.855 57.3624 99.9789 59.5984 99.6098 61.7793C99.7329 61.954 105.228 69.7884 106.336 75.0273L106.377 75.2362C107.404 80.256 107.294 86.6762 105.621 88.2753C105.621 88.2753 111.438 88.3609 114.517 90.5455C116.501 91.9631 117.141 91.3193 117.192 101.694C117.247 91.3193 117.877 91.9631 119.871 90.5455L120.032 90.4359C121.743 89.2923 124.2 88.7547 126.071 88.5013C126.912 88.3859 127.758 88.3127 128.606 88.2821V88.2821H128.637H128.74C127.05 86.6625 126.961 80.0847 128.028 75.0341C129.133 69.7302 134.755 61.7793 134.755 61.7793Z" fill="#B3B4B4" stroke="white" stroke-width="3" stroke-linecap="round" stroke-linejoin="round"/>
<path d="M139.37 48.0965C138.607 48.6889 138.094 48.6443 137.841 48.5553C137.841 48.5245 137.841 48.4937 137.868 48.4629C138.748 45.4913 139.387 42.4533 139.777 39.3786C140.191 36.54 140.527 33.5028 140.67 30.4279V30.1917C141.225 29.6267 142.672 28.3906 143.319 30.1677C145.361 35.7388 142.686 45.5215 139.37 48.0965Z" fill="#B3B4B4" stroke="white" stroke-width="3" stroke-linecap="round" stroke-linejoin="round"/>
<path d="M96.4928 48.5519C96.2431 48.6443 95.7264 48.6888 94.9634 48.0965C91.6481 45.5215 88.976 35.7388 91.0049 30.1643C91.6515 28.3871 93.0988 29.6233 93.653 30.1882V30.4245C93.7967 33.5062 94.132 36.5366 94.546 39.3752C94.9409 42.4826 95.592 45.552 96.4928 48.5519V48.5519Z" fill="#B3B4B4" stroke="white" stroke-width="3" stroke-linecap="round" stroke-linejoin="round"/>
<path d="M140.68 30.1882C140.68 30.267 140.68 30.3458 140.68 30.4245C140.54 33.5062 140.201 36.5366 139.787 39.3752C139.398 42.4495 138.762 45.4874 137.885 48.4594C137.885 48.4902 137.865 48.5211 137.854 48.5519C137.355 50.1612 135.702 54.0647 135.617 54.2325C135.611 54.2511 135.604 54.2694 135.596 54.2873C135.456 54.5681 135.316 54.8489 135.175 55.1194C129.137 66.7888 119.259 70.9834 117.179 70.9834C115.098 70.9834 105.289 66.8162 99.2469 55.2324C99.0725 54.8899 98.9048 54.5715 98.744 54.2359C98.6653 54.0682 97.0093 50.1612 96.5098 48.5519C95.6119 45.5532 94.9653 42.4848 94.5767 39.3786C94.1593 36.54 93.824 33.5028 93.6803 30.4279C93.6803 30.3492 93.6803 30.2704 93.6803 30.1917C93.4032 23.7885 93.9677 17.2313 96.3627 11.9376C101.341 0.980345 117.192 2.02813 117.192 2.02813C117.192 2.02813 133.047 0.963225 138.022 11.9376C140.393 17.2279 140.954 23.7851 140.68 30.1882Z" fill="#B3B4B4" stroke="white" stroke-width="3" stroke-linecap="round" stroke-linejoin="round"/>
</svg>
